<svg width="132" height="26" viewBox="0 0 132 26" fill="none" xmlns="http://www.w3.org/2000/svg">
<g clip-path="url(#clip0_7855_2801)">
<path d="M0 5.41315H6.26586L10.1422 17.7267H10.2201L13.471 5.41315H19.8858L23.4185 17.7267H23.4964L27.0589 5.42495H33.0155L26.2387 25.028H20.4425L16.4951 11.9876H16.4172L12.8845 25.0162H6.97148L0 5.41315Z" fill="#006C93"/>
<path d="M40.5138 0.5H34.2526V5.41316H40.5138V0.5Z" fill="#006C93"/>
<path d="M40.5138 5.41315H34.2526V25.0162H40.5138V5.41315Z" fill="#A1CC56"/>
<path d="M53.8887 11.1806C53.4849 10.6511 52.9666 10.2261 52.3752 9.9393C51.7838 9.65253 51.1355 9.51192 50.482 9.52869C49.5038 9.52869 48.3285 9.97234 48.3285 11.1428C48.3285 14.0454 58.237 11.5865 58.237 19.0482C58.237 24.0511 53.5359 25.5024 49.4648 25.5024C46.8027 25.5024 43.8634 24.8156 41.9847 22.8405L45.5472 18.7651C46.6446 20.1361 47.9367 20.9031 49.6985 20.9031C51.0319 20.9031 52.3629 20.5373 52.3629 19.4872C52.3629 16.3415 42.4544 19.0152 42.4544 11.5416C42.4544 6.94232 46.4499 4.93411 50.4431 4.93411C52.9494 4.93411 55.7307 5.57834 57.4925 7.5134L53.8887 11.1806Z" fill="#006C93"/>
<path d="M72.6244 10.2532H67.449V16.7828C67.449 18.8807 67.6781 20.4122 70.2303 20.4122C70.858 20.4122 72.1112 20.332 72.6198 19.8482V24.8888C71.3277 25.3749 69.8706 25.4953 68.496 25.4953C64.5807 25.4953 61.5658 23.8434 61.5658 19.565V10.2532H57.8154V5.41316H61.5772V0.5H67.449V5.41316H72.6244V10.2532Z" fill="#006C93"/>
<path d="M74.6863 5.41314H80.5581V8.55879H80.6429C81.896 6.18009 83.541 4.92938 86.1275 4.92938C86.7853 4.91047 87.4427 4.97787 88.084 5.12996V10.6472C87.2709 10.3929 86.4273 10.257 85.5776 10.2437C81.1148 10.2437 80.565 12.9056 80.565 16.8182V25.0068H74.6863V5.41314Z" fill="#006C93"/>
<path d="M93.3212 15.2159C93.3212 12.2708 95.0853 10.2602 98.0224 10.2602C100.959 10.2602 102.721 12.2779 102.721 15.2159C102.721 18.1538 100.959 20.1715 98.0224 20.1715C95.0853 20.1715 93.3212 18.1586 93.3212 15.2159ZM87.4471 15.2159C87.4471 21.4647 92.1483 25.5 98.0224 25.5C103.896 25.5 108.593 21.4647 108.593 15.2159C108.593 8.96705 103.896 4.92938 98.0224 4.92938C92.1483 4.92938 87.4471 8.96233 87.4471 15.2159Z" fill="#006C93"/>
<path d="M110.261 5.41315H115.899V8.07503H115.979C116.76 6.54114 118.678 4.92938 121.537 4.92938C127.494 4.92938 128.589 8.96233 128.589 14.2059V25.0162H122.715V15.4164C122.715 13.1581 122.673 10.2532 119.658 10.2532C116.602 10.2532 116.135 12.7144 116.135 15.256V25.0162H110.261V5.41315Z" fill="#006C93"/>
<path d="M132 3.09581C132.005 3.32862 131.963 3.55998 131.878 3.77554C131.792 3.9911 131.665 4.18625 131.503 4.34888C131.18 4.67773 130.745 4.8622 130.291 4.8622C129.837 4.8622 129.402 4.67773 129.079 4.34888C128.916 4.18669 128.787 3.99178 128.701 3.77623C128.614 3.56068 128.571 3.32909 128.575 3.09581C128.571 2.86362 128.613 2.63305 128.699 2.41834C128.785 2.20363 128.913 2.00934 129.074 1.84746C129.314 1.60052 129.619 1.43234 129.952 1.3642C130.284 1.29606 130.629 1.33102 130.942 1.46465C131.255 1.59828 131.523 1.82459 131.711 2.11494C131.9 2.40529 132 2.74664 132 3.09581ZM131.682 3.09581C131.689 2.90234 131.659 2.70928 131.592 2.52822C131.525 2.34716 131.424 2.18184 131.294 2.04218C131.164 1.90251 131.007 1.79139 130.834 1.71549C130.661 1.63958 130.475 1.60045 130.287 1.60045C130.1 1.60045 129.913 1.63958 129.741 1.71549C129.568 1.79139 129.411 1.90251 129.281 2.04218C129.151 2.18184 129.049 2.34716 128.983 2.52822C128.916 2.70928 128.886 2.90234 128.893 3.09581C128.886 3.28928 128.916 3.48234 128.983 3.6634C129.049 3.84446 129.151 4.00978 129.281 4.14944C129.411 4.2891 129.568 4.40022 129.741 4.47613C129.913 4.55204 130.1 4.59117 130.287 4.59117C130.475 4.59117 130.661 4.55204 130.834 4.47613C131.007 4.40022 131.164 4.2891 131.294 4.14944C131.424 4.00978 131.525 3.84446 131.592 3.6634C131.659 3.48234 131.689 3.28928 131.682 3.09581ZM131.198 2.74184C131.207 2.81236 131.199 2.884 131.177 2.95108C131.154 3.01816 131.116 3.07884 131.066 3.1283C131.017 3.17776 130.957 3.21465 130.891 3.23604C130.825 3.25744 130.755 3.26275 130.687 3.25156L131.145 4.05154H130.724L130.312 3.2492H129.945V4.04918H129.588V2.15188H130.481C130.67 2.13982 130.858 2.19295 131.015 2.30291C131.078 2.35617 131.128 2.42468 131.16 2.50243C131.192 2.58018 131.205 2.66481 131.198 2.74891V2.74184ZM130.829 2.6852C130.836 2.64079 130.828 2.59539 130.807 2.5561C130.786 2.51681 130.753 2.48586 130.712 2.4681C130.608 2.43628 130.499 2.42194 130.389 2.42562H129.931V2.97782H130.481C130.57 2.98301 130.658 2.96257 130.735 2.91882C130.77 2.89364 130.797 2.85915 130.813 2.81918C130.83 2.7792 130.835 2.73529 130.829 2.69228V2.6852Z" fill="#006C93"/>
</g>
<defs>
<clipPath id="clip0_7855_2801">
<rect width="132" height="25" fill="white" transform="translate(0 0.5)"/>
</clipPath>
</defs>
</svg>
